<svg width="120" height="85" viewBox="0 0 120 85" fill="none" xmlns="http://www.w3.org/2000/svg">
<g id="Button - Play &#226;&#134;&#146; SVG">
<path id="Vector" d="M116.979 13.6856C115.612 8.5518 112.616 4.2065 107.482 2.83984C98.1785 0.351801 59.9994 0.124023 59.9994 0.124023C59.9994 0.124023 21.8203 0.351801 12.5165 2.83984C7.38274 4.2065 4.40411 8.5518 3.01992 13.6856C0.531886 22.9894 0.426758 42.1753 0.426758 42.1753C0.426758 42.1753 0.531886 61.3612 3.01992 70.665C4.38659 75.7988 7.38274 80.1441 12.5165 81.5108C21.8203 83.9988 59.9994 84.2266 59.9994 84.2266C59.9994 84.2266 98.1785 83.9988 107.482 81.5108C112.616 80.1441 115.612 75.7988 116.979 70.665C119.467 61.3612 119.572 42.1753 119.572 42.1753C119.572 42.1753 119.467 22.9894 116.979 13.6856Z" fill="#FF0000"/>
<path id="Vector_2" d="M79.2738 42.1754L47.7354 24.6541V59.6968" fill="white"/>
</g>
</svg>
