<svg width="65" height="40" viewBox="0 0 65 40" fill="none" xmlns="http://www.w3.org/2000/svg">
<path id="image 3 (Traced)" fill-rule="evenodd" clip-rule="evenodd" d="M16.4711 0.208055C13.7698 0.824328 11.578 2.22276 10.251 4.17662C8.77508 6.35025 7.22335 7.21749 4.31872 7.49229C2.03599 7.70818 1.07147 7.98608 0.45151 8.60604C-0.453133 9.51068 0.0553891 11.1649 1.49724 12.007C2.73753 12.7314 4.11155 12.9013 8.75202 12.9044C12.2694 12.907 13.2836 12.9661 13.725 13.1944C15.1165 13.9139 15.7091 15.7701 15.1919 17.7891C14.8076 19.2895 14.0789 20.4389 12.626 21.8369C10.827 23.5677 9.86557 26.0311 9.85956 28.9239C9.84813 34.4258 14.3227 38.0182 22.841 39.3461C27.7902 40.1176 36.558 40.2251 40.9973 39.5687C48.3046 38.4883 54.9615 35.3998 59.8008 30.844C63.8034 27.076 65.2379 24.0733 63.747 22.5825C63.4023 22.2377 62.9769 22.016 62.6604 22.016C62.2432 22.016 62.1668 21.9489 62.2742 21.6768C62.6538 20.7146 62.9907 18.8819 62.8734 18.4151C62.566 17.1901 60.7508 16.2343 59.2021 16.4819C58.7802 16.5494 57.73 16.9862 56.8684 17.4525C53.944 19.0352 52.2415 19.2515 49.1704 18.4302C39.6461 15.8833 38.3587 15.7527 31.8072 16.6697C29.1795 17.0375 27.9299 16.8641 27.283 16.0416C26.7703 15.3899 26.8976 14.3134 27.6164 13.2225C28.3224 12.1508 28.8117 10.5988 29.0514 8.6698C29.3152 6.54695 29.1654 5.36653 28.44 3.85453C27.6034 2.11075 26.1685 1.04603 23.7604 0.382666C22.2441 -0.0349657 17.9841 -0.137097 16.4711 0.208055ZM16.5426 6.00044C17.1149 6.87388 16.2366 7.76981 15.3669 7.19985C14.8169 6.83958 14.7655 6.39559 15.2161 5.89773C15.6554 5.41227 16.1841 5.45316 16.5426 6.00044Z" fill="#FF387A"/>
</svg>
